<mxfile host="65bd71144e">
    <diagram id="C5RBs43oDa-KdzZeNtuy" name="Page-1">
        <mxGraphModel dx="1099" dy="408" grid="1" gridSize="10" guides="1" tooltips="1" connect="1" arrows="1" fold="1" page="1" pageScale="1" pageWidth="827" pageHeight="1169" math="0" shadow="0">
            <root>
                <mxCell id="WIyWlLk6GJQsqaUBKTNV-0"/>
                <mxCell id="WIyWlLk6GJQsqaUBKTNV-1" parent="WIyWlLk6GJQsqaUBKTNV-0"/>
                <mxCell id="zkfFHV4jXpPFQw0GAbJ--6" value="videos.ethz" style="swimlane;fontStyle=0;align=center;verticalAlign=top;childLayout=stackLayout;horizontal=1;startSize=26;horizontalStack=0;resizeParent=1;resizeLast=0;collapsible=1;marginBottom=0;rounded=0;shadow=0;strokeWidth=1;sketch=1;" parent="WIyWlLk6GJQsqaUBKTNV-1" vertex="1">
                    <mxGeometry x="30" y="90" width="160" height="138" as="geometry">
                        <mxRectangle x="130" y="380" width="160" height="26" as="alternateBounds"/>
                    </mxGeometry>
                </mxCell>
                <mxCell id="zkfFHV4jXpPFQw0GAbJ--7" value="lectures" style="text;align=left;verticalAlign=top;spacingLeft=4;spacingRight=4;overflow=hidden;rotatable=0;points=[[0,0.5],[1,0.5]];portConstraint=eastwest;labelBackgroundColor=#3E5712;sketch=1;rounded=0;" parent="zkfFHV4jXpPFQw0GAbJ--6" vertex="1">
                    <mxGeometry y="26" width="160" height="26" as="geometry"/>
                </mxCell>
                <mxCell id="zkfFHV4jXpPFQw0GAbJ--17" value="n-Faculties withhierarchical&#10;structure insideÂ &#10;" style="swimlane;fontStyle=0;align=center;verticalAlign=top;childLayout=stackLayout;horizontal=1;startSize=50;horizontalStack=0;resizeParent=1;resizeLast=0;collapsible=1;marginBottom=0;rounded=0;shadow=0;strokeWidth=1;sketch=1;" parent="WIyWlLk6GJQsqaUBKTNV-1" vertex="1">
                    <mxGeometry x="260" y="100" width="160" height="50" as="geometry">
                        <mxRectangle x="550" y="140" width="160" height="26" as="alternateBounds"/>
                    </mxGeometry>
                </mxCell>
                <mxCell id="1" value="go to" style="edgeStyle=none;shape=link;html=1;exitX=1;exitY=0.5;exitDx=0;exitDy=0;labelBackgroundColor=#521C52;sketch=1;rounded=0;" edge="1" parent="WIyWlLk6GJQsqaUBKTNV-1" source="zkfFHV4jXpPFQw0GAbJ--7">
                    <mxGeometry relative="1" as="geometry">
                        <mxPoint x="260" y="129" as="targetPoint"/>
                    </mxGeometry>
                </mxCell>
                <mxCell id="DXXwoO81avdfh-cVhMEc-43" value="" style="shape=table;startSize=0;container=1;collapsible=0;childLayout=tableLayout;labelBackgroundColor=#6B280F;sketch=1;rounded=0;" vertex="1" parent="WIyWlLk6GJQsqaUBKTNV-1">
                    <mxGeometry x="310" y="150" width="60" height="280" as="geometry"/>
                </mxCell>
                <mxCell id="DXXwoO81avdfh-cVhMEc-44" value="" style="shape=partialRectangle;collapsible=0;dropTarget=0;pointerEvents=0;fillColor=none;top=0;left=0;bottom=0;right=0;points=[[0,0.5],[1,0.5]];portConstraint=eastwest;labelBackgroundColor=#6B280F;sketch=1;rounded=0;" vertex="1" parent="DXXwoO81avdfh-cVhMEc-43">
                    <mxGeometry width="60" height="40" as="geometry"/>
                </mxCell>
                <mxCell id="DXXwoO81avdfh-cVhMEc-45" value="faculty 1" style="shape=partialRectangle;html=1;whiteSpace=wrap;connectable=0;overflow=hidden;fillColor=none;top=0;left=0;bottom=0;right=0;pointerEvents=1;labelBackgroundColor=#6B280F;sketch=1;rounded=0;" vertex="1" parent="DXXwoO81avdfh-cVhMEc-44">
                    <mxGeometry width="60" height="40" as="geometry">
                        <mxRectangle width="60" height="40" as="alternateBounds"/>
                    </mxGeometry>
                </mxCell>
                <mxCell id="DXXwoO81avdfh-cVhMEc-46" value="" style="shape=partialRectangle;collapsible=0;dropTarget=0;pointerEvents=0;fillColor=none;top=0;left=0;bottom=0;right=0;points=[[0,0.5],[1,0.5]];portConstraint=eastwest;labelBackgroundColor=#6B280F;sketch=1;rounded=0;" vertex="1" parent="DXXwoO81avdfh-cVhMEc-43">
                    <mxGeometry y="40" width="60" height="40" as="geometry"/>
                </mxCell>
                <mxCell id="DXXwoO81avdfh-cVhMEc-47" value="faculty 2" style="shape=partialRectangle;html=1;whiteSpace=wrap;connectable=0;overflow=hidden;fillColor=none;top=0;left=0;bottom=0;right=0;pointerEvents=1;labelBackgroundColor=#6B280F;sketch=1;rounded=0;" vertex="1" parent="DXXwoO81avdfh-cVhMEc-46">
                    <mxGeometry width="60" height="40" as="geometry">
                        <mxRectangle width="60" height="40" as="alternateBounds"/>
                    </mxGeometry>
                </mxCell>
                <mxCell id="DXXwoO81avdfh-cVhMEc-48" value="" style="shape=partialRectangle;collapsible=0;dropTarget=0;pointerEvents=0;fillColor=none;top=0;left=0;bottom=0;right=0;points=[[0,0.5],[1,0.5]];portConstraint=eastwest;labelBackgroundColor=#6B280F;sketch=1;rounded=0;" vertex="1" parent="DXXwoO81avdfh-cVhMEc-43">
                    <mxGeometry y="80" width="60" height="40" as="geometry"/>
                </mxCell>
                <mxCell id="DXXwoO81avdfh-cVhMEc-49" value="" style="shape=partialRectangle;html=1;whiteSpace=wrap;connectable=0;overflow=hidden;fillColor=none;top=0;left=0;bottom=0;right=0;pointerEvents=1;labelBackgroundColor=#6B280F;sketch=1;rounded=0;" vertex="1" parent="DXXwoO81avdfh-cVhMEc-48">
                    <mxGeometry width="60" height="40" as="geometry">
                        <mxRectangle width="60" height="40" as="alternateBounds"/>
                    </mxGeometry>
                </mxCell>
                <mxCell id="DXXwoO81avdfh-cVhMEc-50" value="" style="shape=partialRectangle;collapsible=0;dropTarget=0;pointerEvents=0;fillColor=none;top=0;left=0;bottom=0;right=0;points=[[0,0.5],[1,0.5]];portConstraint=eastwest;labelBackgroundColor=#6B280F;sketch=1;rounded=0;" vertex="1" parent="DXXwoO81avdfh-cVhMEc-43">
                    <mxGeometry y="120" width="60" height="40" as="geometry"/>
                </mxCell>
                <mxCell id="DXXwoO81avdfh-cVhMEc-51" value="" style="shape=partialRectangle;html=1;whiteSpace=wrap;connectable=0;overflow=hidden;fillColor=none;top=0;left=0;bottom=0;right=0;pointerEvents=1;labelBackgroundColor=#6B280F;sketch=1;rounded=0;" vertex="1" parent="DXXwoO81avdfh-cVhMEc-50">
                    <mxGeometry width="60" height="40" as="geometry">
                        <mxRectangle width="60" height="40" as="alternateBounds"/>
                    </mxGeometry>
                </mxCell>
                <mxCell id="DXXwoO81avdfh-cVhMEc-52" value="" style="shape=partialRectangle;collapsible=0;dropTarget=0;pointerEvents=0;fillColor=none;top=0;left=0;bottom=0;right=0;points=[[0,0.5],[1,0.5]];portConstraint=eastwest;labelBackgroundColor=#6B280F;sketch=1;rounded=0;" vertex="1" parent="DXXwoO81avdfh-cVhMEc-43">
                    <mxGeometry y="160" width="60" height="40" as="geometry"/>
                </mxCell>
                <mxCell id="DXXwoO81avdfh-cVhMEc-53" value="" style="shape=partialRectangle;html=1;whiteSpace=wrap;connectable=0;overflow=hidden;fillColor=none;top=0;left=0;bottom=0;right=0;pointerEvents=1;labelBackgroundColor=#6B280F;sketch=1;rounded=0;" vertex="1" parent="DXXwoO81avdfh-cVhMEc-52">
                    <mxGeometry width="60" height="40" as="geometry">
                        <mxRectangle width="60" height="40" as="alternateBounds"/>
                    </mxGeometry>
                </mxCell>
                <mxCell id="DXXwoO81avdfh-cVhMEc-54" value="" style="shape=partialRectangle;collapsible=0;dropTarget=0;pointerEvents=0;fillColor=none;top=0;left=0;bottom=0;right=0;points=[[0,0.5],[1,0.5]];portConstraint=eastwest;labelBackgroundColor=#6B280F;sketch=1;rounded=0;" vertex="1" parent="DXXwoO81avdfh-cVhMEc-43">
                    <mxGeometry y="200" width="60" height="40" as="geometry"/>
                </mxCell>
                <mxCell id="DXXwoO81avdfh-cVhMEc-55" value="" style="shape=partialRectangle;html=1;whiteSpace=wrap;connectable=0;overflow=hidden;fillColor=none;top=0;left=0;bottom=0;right=0;pointerEvents=1;labelBackgroundColor=#6B280F;sketch=1;rounded=0;" vertex="1" parent="DXXwoO81avdfh-cVhMEc-54">
                    <mxGeometry width="60" height="40" as="geometry">
                        <mxRectangle width="60" height="40" as="alternateBounds"/>
                    </mxGeometry>
                </mxCell>
                <mxCell id="DXXwoO81avdfh-cVhMEc-56" value="" style="shape=partialRectangle;collapsible=0;dropTarget=0;pointerEvents=0;fillColor=none;top=0;left=0;bottom=0;right=0;points=[[0,0.5],[1,0.5]];portConstraint=eastwest;labelBackgroundColor=#6B280F;sketch=1;rounded=0;" vertex="1" parent="DXXwoO81avdfh-cVhMEc-43">
                    <mxGeometry y="240" width="60" height="40" as="geometry"/>
                </mxCell>
                <mxCell id="DXXwoO81avdfh-cVhMEc-57" value="" style="shape=partialRectangle;html=1;whiteSpace=wrap;connectable=0;overflow=hidden;fillColor=none;top=0;left=0;bottom=0;right=0;pointerEvents=1;labelBackgroundColor=#6B280F;sketch=1;rounded=0;" vertex="1" parent="DXXwoO81avdfh-cVhMEc-56">
                    <mxGeometry width="60" height="40" as="geometry">
                        <mxRectangle width="60" height="40" as="alternateBounds"/>
                    </mxGeometry>
                </mxCell>
                <mxCell id="DXXwoO81avdfh-cVhMEc-59" style="edgeStyle=none;shape=link;sketch=1;html=1;labelBackgroundColor=#521C52;rounded=0;" edge="1" parent="WIyWlLk6GJQsqaUBKTNV-1" source="DXXwoO81avdfh-cVhMEc-56">
                    <mxGeometry relative="1" as="geometry">
                        <mxPoint x="460" y="410" as="targetPoint"/>
                    </mxGeometry>
                </mxCell>
                <mxCell id="DXXwoO81avdfh-cVhMEc-60" value="" style="shape=table;startSize=0;container=1;collapsible=0;childLayout=tableLayout;labelBackgroundColor=#6B280F;sketch=1;rounded=0;" vertex="1" parent="WIyWlLk6GJQsqaUBKTNV-1">
                    <mxGeometry x="460" y="400" width="60" height="240" as="geometry"/>
                </mxCell>
                <mxCell id="DXXwoO81avdfh-cVhMEc-61" value="" style="shape=partialRectangle;collapsible=0;dropTarget=0;pointerEvents=0;fillColor=none;top=0;left=0;bottom=0;right=0;points=[[0,0.5],[1,0.5]];portConstraint=eastwest;labelBackgroundColor=#6B280F;sketch=1;rounded=0;" vertex="1" parent="DXXwoO81avdfh-cVhMEc-60">
                    <mxGeometry width="60" height="40" as="geometry"/>
                </mxCell>
                <mxCell id="DXXwoO81avdfh-cVhMEc-62" value="year&amp;nbsp;" style="shape=partialRectangle;html=1;whiteSpace=wrap;connectable=0;overflow=hidden;fillColor=none;top=0;left=0;bottom=0;right=0;pointerEvents=1;labelBackgroundColor=#6B280F;sketch=1;rounded=0;" vertex="1" parent="DXXwoO81avdfh-cVhMEc-61">
                    <mxGeometry width="60" height="40" as="geometry">
                        <mxRectangle width="60" height="40" as="alternateBounds"/>
                    </mxGeometry>
                </mxCell>
                <mxCell id="DXXwoO81avdfh-cVhMEc-63" value="" style="shape=partialRectangle;collapsible=0;dropTarget=0;pointerEvents=0;fillColor=none;top=0;left=0;bottom=0;right=0;points=[[0,0.5],[1,0.5]];portConstraint=eastwest;labelBackgroundColor=#6B280F;sketch=1;rounded=0;" vertex="1" parent="DXXwoO81avdfh-cVhMEc-60">
                    <mxGeometry y="40" width="60" height="40" as="geometry"/>
                </mxCell>
                <mxCell id="DXXwoO81avdfh-cVhMEc-64" value="year 2" style="shape=partialRectangle;html=1;whiteSpace=wrap;connectable=0;overflow=hidden;fillColor=none;top=0;left=0;bottom=0;right=0;pointerEvents=1;labelBackgroundColor=#6B280F;sketch=1;rounded=0;" vertex="1" parent="DXXwoO81avdfh-cVhMEc-63">
                    <mxGeometry width="60" height="40" as="geometry">
                        <mxRectangle width="60" height="40" as="alternateBounds"/>
                    </mxGeometry>
                </mxCell>
                <mxCell id="DXXwoO81avdfh-cVhMEc-65" value="" style="shape=partialRectangle;collapsible=0;dropTarget=0;pointerEvents=0;fillColor=none;top=0;left=0;bottom=0;right=0;points=[[0,0.5],[1,0.5]];portConstraint=eastwest;labelBackgroundColor=#6B280F;sketch=1;rounded=0;" vertex="1" parent="DXXwoO81avdfh-cVhMEc-60">
                    <mxGeometry y="80" width="60" height="40" as="geometry"/>
                </mxCell>
                <mxCell id="DXXwoO81avdfh-cVhMEc-66" value="" style="shape=partialRectangle;html=1;whiteSpace=wrap;connectable=0;overflow=hidden;fillColor=none;top=0;left=0;bottom=0;right=0;pointerEvents=1;labelBackgroundColor=#6B280F;sketch=1;rounded=0;" vertex="1" parent="DXXwoO81avdfh-cVhMEc-65">
                    <mxGeometry width="60" height="40" as="geometry">
                        <mxRectangle width="60" height="40" as="alternateBounds"/>
                    </mxGeometry>
                </mxCell>
                <mxCell id="DXXwoO81avdfh-cVhMEc-67" value="" style="shape=partialRectangle;collapsible=0;dropTarget=0;pointerEvents=0;fillColor=none;top=0;left=0;bottom=0;right=0;points=[[0,0.5],[1,0.5]];portConstraint=eastwest;labelBackgroundColor=#6B280F;sketch=1;rounded=0;" vertex="1" parent="DXXwoO81avdfh-cVhMEc-60">
                    <mxGeometry y="120" width="60" height="40" as="geometry"/>
                </mxCell>
                <mxCell id="DXXwoO81avdfh-cVhMEc-68" value="" style="shape=partialRectangle;html=1;whiteSpace=wrap;connectable=0;overflow=hidden;fillColor=none;top=0;left=0;bottom=0;right=0;pointerEvents=1;labelBackgroundColor=#6B280F;sketch=1;rounded=0;" vertex="1" parent="DXXwoO81avdfh-cVhMEc-67">
                    <mxGeometry width="60" height="40" as="geometry">
                        <mxRectangle width="60" height="40" as="alternateBounds"/>
                    </mxGeometry>
                </mxCell>
                <mxCell id="DXXwoO81avdfh-cVhMEc-69" value="" style="shape=partialRectangle;collapsible=0;dropTarget=0;pointerEvents=0;fillColor=none;top=0;left=0;bottom=0;right=0;points=[[0,0.5],[1,0.5]];portConstraint=eastwest;labelBackgroundColor=#6B280F;sketch=1;rounded=0;" vertex="1" parent="DXXwoO81avdfh-cVhMEc-60">
                    <mxGeometry y="160" width="60" height="40" as="geometry"/>
                </mxCell>
                <mxCell id="DXXwoO81avdfh-cVhMEc-70" value="" style="shape=partialRectangle;html=1;whiteSpace=wrap;connectable=0;overflow=hidden;fillColor=none;top=0;left=0;bottom=0;right=0;pointerEvents=1;labelBackgroundColor=#6B280F;sketch=1;rounded=0;" vertex="1" parent="DXXwoO81avdfh-cVhMEc-69">
                    <mxGeometry width="60" height="40" as="geometry">
                        <mxRectangle width="60" height="40" as="alternateBounds"/>
                    </mxGeometry>
                </mxCell>
                <mxCell id="DXXwoO81avdfh-cVhMEc-71" value="" style="shape=partialRectangle;collapsible=0;dropTarget=0;pointerEvents=0;fillColor=none;top=0;left=0;bottom=0;right=0;points=[[0,0.5],[1,0.5]];portConstraint=eastwest;labelBackgroundColor=#6B280F;sketch=1;rounded=0;" vertex="1" parent="DXXwoO81avdfh-cVhMEc-60">
                    <mxGeometry y="200" width="60" height="40" as="geometry"/>
                </mxCell>
                <mxCell id="DXXwoO81avdfh-cVhMEc-72" value="" style="shape=partialRectangle;html=1;whiteSpace=wrap;connectable=0;overflow=hidden;fillColor=none;top=0;left=0;bottom=0;right=0;pointerEvents=1;labelBackgroundColor=#6B280F;sketch=1;rounded=0;" vertex="1" parent="DXXwoO81avdfh-cVhMEc-71">
                    <mxGeometry width="60" height="40" as="geometry">
                        <mxRectangle width="60" height="40" as="alternateBounds"/>
                    </mxGeometry>
                </mxCell>
                <mxCell id="DXXwoO81avdfh-cVhMEc-73" style="edgeStyle=none;shape=link;sketch=1;html=1;exitX=1;exitY=0.5;exitDx=0;exitDy=0;labelBackgroundColor=#521C52;rounded=0;" edge="1" parent="WIyWlLk6GJQsqaUBKTNV-1" source="DXXwoO81avdfh-cVhMEc-71">
                    <mxGeometry relative="1" as="geometry">
                        <mxPoint x="580" y="620" as="targetPoint"/>
                    </mxGeometry>
                </mxCell>
                <mxCell id="DXXwoO81avdfh-cVhMEc-74" value="" style="shape=table;startSize=0;container=1;collapsible=0;childLayout=tableLayout;labelBackgroundColor=#6B280F;sketch=1;rounded=0;" vertex="1" parent="WIyWlLk6GJQsqaUBKTNV-1">
                    <mxGeometry x="580" y="600" width="60" height="80" as="geometry"/>
                </mxCell>
                <mxCell id="DXXwoO81avdfh-cVhMEc-83" value="" style="shape=partialRectangle;collapsible=0;dropTarget=0;pointerEvents=0;fillColor=none;top=0;left=0;bottom=0;right=0;points=[[0,0.5],[1,0.5]];portConstraint=eastwest;labelBackgroundColor=#6B280F;sketch=1;rounded=0;" vertex="1" parent="DXXwoO81avdfh-cVhMEc-74">
                    <mxGeometry width="60" height="80" as="geometry"/>
                </mxCell>
                <mxCell id="DXXwoO81avdfh-cVhMEc-84" value="spring&lt;br&gt;or&lt;br&gt;autumn" style="shape=partialRectangle;html=1;whiteSpace=wrap;connectable=0;overflow=hidden;fillColor=none;top=0;left=0;bottom=0;right=0;pointerEvents=1;labelBackgroundColor=#6B280F;sketch=1;rounded=0;" vertex="1" parent="DXXwoO81avdfh-cVhMEc-83">
                    <mxGeometry width="60" height="80" as="geometry">
                        <mxRectangle width="60" height="80" as="alternateBounds"/>
                    </mxGeometry>
                </mxCell>
                <mxCell id="DXXwoO81avdfh-cVhMEc-99" style="edgeStyle=none;shape=link;sketch=1;html=1;exitX=1;exitY=0.5;exitDx=0;exitDy=0;labelBackgroundColor=#521C52;" edge="1" parent="WIyWlLk6GJQsqaUBKTNV-1" source="DXXwoO81avdfh-cVhMEc-83">
                    <mxGeometry relative="1" as="geometry">
                        <mxPoint x="690" y="640" as="targetPoint"/>
                    </mxGeometry>
                </mxCell>
                <mxCell id="DXXwoO81avdfh-cVhMEc-115" value="" style="shape=table;startSize=0;container=1;collapsible=0;childLayout=tableLayout;labelBackgroundColor=#6B280F;sketch=1;" vertex="1" parent="WIyWlLk6GJQsqaUBKTNV-1">
                    <mxGeometry x="690" y="620" width="180" height="290" as="geometry"/>
                </mxCell>
                <mxCell id="DXXwoO81avdfh-cVhMEc-116" value="" style="shape=partialRectangle;collapsible=0;dropTarget=0;pointerEvents=0;fillColor=none;top=0;left=0;bottom=0;right=0;points=[[0,0.5],[1,0.5]];portConstraint=eastwest;labelBackgroundColor=#6B280F;sketch=1;" vertex="1" parent="DXXwoO81avdfh-cVhMEc-115">
                    <mxGeometry width="180" height="41" as="geometry"/>
                </mxCell>
                <mxCell id="DXXwoO81avdfh-cVhMEc-117" value="subject 1" style="shape=partialRectangle;html=1;whiteSpace=wrap;connectable=0;overflow=hidden;fillColor=none;top=0;left=0;bottom=0;right=0;pointerEvents=1;labelBackgroundColor=#6B280F;sketch=1;" vertex="1" parent="DXXwoO81avdfh-cVhMEc-116">
                    <mxGeometry width="180" height="41" as="geometry">
                        <mxRectangle width="180" height="41" as="alternateBounds"/>
                    </mxGeometry>
                </mxCell>
                <mxCell id="DXXwoO81avdfh-cVhMEc-118" value="" style="shape=partialRectangle;collapsible=0;dropTarget=0;pointerEvents=0;fillColor=none;top=0;left=0;bottom=0;right=0;points=[[0,0.5],[1,0.5]];portConstraint=eastwest;labelBackgroundColor=#6B280F;sketch=1;" vertex="1" parent="DXXwoO81avdfh-cVhMEc-115">
                    <mxGeometry y="41" width="180" height="42" as="geometry"/>
                </mxCell>
                <mxCell id="DXXwoO81avdfh-cVhMEc-119" value="subject 2" style="shape=partialRectangle;html=1;whiteSpace=wrap;connectable=0;overflow=hidden;fillColor=none;top=0;left=0;bottom=0;right=0;pointerEvents=1;labelBackgroundColor=#6B280F;sketch=1;" vertex="1" parent="DXXwoO81avdfh-cVhMEc-118">
                    <mxGeometry width="180" height="42" as="geometry">
                        <mxRectangle width="180" height="42" as="alternateBounds"/>
                    </mxGeometry>
                </mxCell>
                <mxCell id="DXXwoO81avdfh-cVhMEc-120" value="" style="shape=partialRectangle;collapsible=0;dropTarget=0;pointerEvents=0;fillColor=none;top=0;left=0;bottom=0;right=0;points=[[0,0.5],[1,0.5]];portConstraint=eastwest;labelBackgroundColor=#6B280F;sketch=1;" vertex="1" parent="DXXwoO81avdfh-cVhMEc-115">
                    <mxGeometry y="83" width="180" height="41" as="geometry"/>
                </mxCell>
                <mxCell id="DXXwoO81avdfh-cVhMEc-121" value="subject 3" style="shape=partialRectangle;html=1;whiteSpace=wrap;connectable=0;overflow=hidden;fillColor=none;top=0;left=0;bottom=0;right=0;pointerEvents=1;labelBackgroundColor=#6B280F;sketch=1;" vertex="1" parent="DXXwoO81avdfh-cVhMEc-120">
                    <mxGeometry width="180" height="41" as="geometry">
                        <mxRectangle width="180" height="41" as="alternateBounds"/>
                    </mxGeometry>
                </mxCell>
                <mxCell id="DXXwoO81avdfh-cVhMEc-122" value="" style="shape=partialRectangle;collapsible=0;dropTarget=0;pointerEvents=0;fillColor=none;top=0;left=0;bottom=0;right=0;points=[[0,0.5],[1,0.5]];portConstraint=eastwest;labelBackgroundColor=#6B280F;sketch=1;" vertex="1" parent="DXXwoO81avdfh-cVhMEc-115">
                    <mxGeometry y="124" width="180" height="42" as="geometry"/>
                </mxCell>
                <mxCell id="DXXwoO81avdfh-cVhMEc-123" value="" style="shape=partialRectangle;html=1;whiteSpace=wrap;connectable=0;overflow=hidden;fillColor=none;top=0;left=0;bottom=0;right=0;pointerEvents=1;labelBackgroundColor=#6B280F;sketch=1;" vertex="1" parent="DXXwoO81avdfh-cVhMEc-122">
                    <mxGeometry width="180" height="42" as="geometry">
                        <mxRectangle width="180" height="42" as="alternateBounds"/>
                    </mxGeometry>
                </mxCell>
                <mxCell id="DXXwoO81avdfh-cVhMEc-124" value="" style="shape=partialRectangle;collapsible=0;dropTarget=0;pointerEvents=0;fillColor=none;top=0;left=0;bottom=0;right=0;points=[[0,0.5],[1,0.5]];portConstraint=eastwest;labelBackgroundColor=#6B280F;sketch=1;" vertex="1" parent="DXXwoO81avdfh-cVhMEc-115">
                    <mxGeometry y="166" width="180" height="41" as="geometry"/>
                </mxCell>
                <mxCell id="DXXwoO81avdfh-cVhMEc-125" value="" style="shape=partialRectangle;html=1;whiteSpace=wrap;connectable=0;overflow=hidden;fillColor=none;top=0;left=0;bottom=0;right=0;pointerEvents=1;labelBackgroundColor=#6B280F;sketch=1;" vertex="1" parent="DXXwoO81avdfh-cVhMEc-124">
                    <mxGeometry width="180" height="41" as="geometry">
                        <mxRectangle width="180" height="41" as="alternateBounds"/>
                    </mxGeometry>
                </mxCell>
                <mxCell id="DXXwoO81avdfh-cVhMEc-126" value="" style="shape=partialRectangle;collapsible=0;dropTarget=0;pointerEvents=0;fillColor=none;top=0;left=0;bottom=0;right=0;points=[[0,0.5],[1,0.5]];portConstraint=eastwest;labelBackgroundColor=#6B280F;sketch=1;" vertex="1" parent="DXXwoO81avdfh-cVhMEc-115">
                    <mxGeometry y="207" width="180" height="42" as="geometry"/>
                </mxCell>
                <mxCell id="DXXwoO81avdfh-cVhMEc-127" value="" style="shape=partialRectangle;html=1;whiteSpace=wrap;connectable=0;overflow=hidden;fillColor=none;top=0;left=0;bottom=0;right=0;pointerEvents=1;labelBackgroundColor=#6B280F;sketch=1;" vertex="1" parent="DXXwoO81avdfh-cVhMEc-126">
                    <mxGeometry width="180" height="42" as="geometry">
                        <mxRectangle width="180" height="42" as="alternateBounds"/>
                    </mxGeometry>
                </mxCell>
                <mxCell id="DXXwoO81avdfh-cVhMEc-128" value="" style="shape=partialRectangle;collapsible=0;dropTarget=0;pointerEvents=0;fillColor=none;top=0;left=0;bottom=0;right=0;points=[[0,0.5],[1,0.5]];portConstraint=eastwest;labelBackgroundColor=#6B280F;sketch=1;" vertex="1" parent="DXXwoO81avdfh-cVhMEc-115">
                    <mxGeometry y="249" width="180" height="41" as="geometry"/>
                </mxCell>
                <mxCell id="DXXwoO81avdfh-cVhMEc-129" value="" style="shape=partialRectangle;html=1;whiteSpace=wrap;connectable=0;overflow=hidden;fillColor=none;top=0;left=0;bottom=0;right=0;pointerEvents=1;labelBackgroundColor=#6B280F;sketch=1;" vertex="1" parent="DXXwoO81avdfh-cVhMEc-128">
                    <mxGeometry width="180" height="41" as="geometry">
                        <mxRectangle width="180" height="41" as="alternateBounds"/>
                    </mxGeometry>
                </mxCell>
                <mxCell id="DXXwoO81avdfh-cVhMEc-147" value="grant&lt;br&gt;access" style="rhombus;whiteSpace=wrap;html=1;startSize=0;labelBackgroundColor=#6B280F;sketch=1;fillColor=#d80073;fontColor=#ffffff;strokeColor=#A50040;" vertex="1" parent="WIyWlLk6GJQsqaUBKTNV-1">
                    <mxGeometry x="1560" y="490" width="80" height="80" as="geometry"/>
                </mxCell>
                <mxCell id="DXXwoO81avdfh-cVhMEc-150" value="get list of packages" style="edgeStyle=none;shape=link;sketch=1;html=1;labelBackgroundColor=#521C52;" edge="1" parent="WIyWlLk6GJQsqaUBKTNV-1" source="DXXwoO81avdfh-cVhMEc-116">
                    <mxGeometry relative="1" as="geometry">
                        <mxPoint x="1090" y="640.5" as="targetPoint"/>
                    </mxGeometry>
                </mxCell>
                <mxCell id="DXXwoO81avdfh-cVhMEc-162" value="" style="shape=table;startSize=0;container=1;collapsible=0;childLayout=tableLayout;labelBackgroundColor=#6B280F;sketch=1;" vertex="1" parent="WIyWlLk6GJQsqaUBKTNV-1">
                    <mxGeometry x="1090" y="570" width="410" height="409" as="geometry"/>
                </mxCell>
                <mxCell id="DXXwoO81avdfh-cVhMEc-163" value="" style="shape=partialRectangle;collapsible=0;dropTarget=0;pointerEvents=0;fillColor=none;top=0;left=0;bottom=0;right=0;points=[[0,0.5],[1,0.5]];portConstraint=eastwest;labelBackgroundColor=#6B280F;sketch=1;" vertex="1" parent="DXXwoO81avdfh-cVhMEc-162">
                    <mxGeometry width="410" height="100" as="geometry"/>
                </mxCell>
                <mxCell id="DXXwoO81avdfh-cVhMEc-164" value="parameters and&lt;br&gt;n- packages&lt;br&gt;" style="shape=partialRectangle;html=1;whiteSpace=wrap;connectable=0;overflow=hidden;fillColor=none;top=0;left=0;bottom=0;right=0;pointerEvents=1;labelBackgroundColor=#6B280F;sketch=1;" vertex="1" parent="DXXwoO81avdfh-cVhMEc-163">
                    <mxGeometry width="90" height="100" as="geometry">
                        <mxRectangle width="90" height="100" as="alternateBounds"/>
                    </mxGeometry>
                </mxCell>
                <mxCell id="DXXwoO81avdfh-cVhMEc-165" value="class=&quot;eth-accordion-container__content&quot; -data:&lt;br&gt;&amp;lt;h3&amp;gt;&lt;br&gt;datetime&lt;br&gt;datetime&lt;br&gt;" style="shape=partialRectangle;html=1;whiteSpace=wrap;connectable=0;overflow=hidden;fillColor=none;top=0;left=0;bottom=0;right=0;pointerEvents=1;labelBackgroundColor=#6B280F;sketch=1;" vertex="1" parent="DXXwoO81avdfh-cVhMEc-163">
                    <mxGeometry x="90" width="320" height="100" as="geometry">
                        <mxRectangle width="320" height="100" as="alternateBounds"/>
                    </mxGeometry>
                </mxCell>
                <mxCell id="DXXwoO81avdfh-cVhMEc-170" value="" style="shape=partialRectangle;collapsible=0;dropTarget=0;pointerEvents=0;fillColor=none;top=0;left=0;bottom=0;right=0;points=[[0,0.5],[1,0.5]];portConstraint=eastwest;labelBackgroundColor=#6B280F;sketch=1;" vertex="1" parent="DXXwoO81avdfh-cVhMEc-162">
                    <mxGeometry y="100" width="410" height="51" as="geometry"/>
                </mxCell>
                <mxCell id="DXXwoO81avdfh-cVhMEc-171" value="package 1" style="shape=partialRectangle;html=1;whiteSpace=wrap;connectable=0;overflow=hidden;fillColor=none;top=0;left=0;bottom=0;right=0;pointerEvents=1;labelBackgroundColor=#6B280F;sketch=1;" vertex="1" parent="DXXwoO81avdfh-cVhMEc-170">
                    <mxGeometry width="90" height="51" as="geometry">
                        <mxRectangle width="90" height="51" as="alternateBounds"/>
                    </mxGeometry>
                </mxCell>
                <mxCell id="DXXwoO81avdfh-cVhMEc-172" value="" style="shape=partialRectangle;html=1;whiteSpace=wrap;connectable=0;overflow=hidden;fillColor=none;top=0;left=0;bottom=0;right=0;pointerEvents=1;labelBackgroundColor=#6B280F;sketch=1;" vertex="1" parent="DXXwoO81avdfh-cVhMEc-170">
                    <mxGeometry x="90" width="320" height="51" as="geometry">
                        <mxRectangle width="320" height="51" as="alternateBounds"/>
                    </mxGeometry>
                </mxCell>
                <mxCell id="DXXwoO81avdfh-cVhMEc-177" value="" style="shape=partialRectangle;collapsible=0;dropTarget=0;pointerEvents=0;fillColor=none;top=0;left=0;bottom=0;right=0;points=[[0,0.5],[1,0.5]];portConstraint=eastwest;labelBackgroundColor=#6B280F;sketch=1;" vertex="1" parent="DXXwoO81avdfh-cVhMEc-162">
                    <mxGeometry y="151" width="410" height="51" as="geometry"/>
                </mxCell>
                <mxCell id="DXXwoO81avdfh-cVhMEc-178" value="package 2" style="shape=partialRectangle;html=1;whiteSpace=wrap;connectable=0;overflow=hidden;fillColor=none;top=0;left=0;bottom=0;right=0;pointerEvents=1;labelBackgroundColor=#6B280F;sketch=1;" vertex="1" parent="DXXwoO81avdfh-cVhMEc-177">
                    <mxGeometry width="90" height="51" as="geometry">
                        <mxRectangle width="90" height="51" as="alternateBounds"/>
                    </mxGeometry>
                </mxCell>
                <mxCell id="DXXwoO81avdfh-cVhMEc-179" value="" style="shape=partialRectangle;html=1;whiteSpace=wrap;connectable=0;overflow=hidden;fillColor=none;top=0;left=0;bottom=0;right=0;pointerEvents=1;labelBackgroundColor=#6B280F;sketch=1;" vertex="1" parent="DXXwoO81avdfh-cVhMEc-177">
                    <mxGeometry x="90" width="320" height="51" as="geometry">
                        <mxRectangle width="320" height="51" as="alternateBounds"/>
                    </mxGeometry>
                </mxCell>
                <mxCell id="DXXwoO81avdfh-cVhMEc-184" value="" style="shape=partialRectangle;collapsible=0;dropTarget=0;pointerEvents=0;fillColor=none;top=0;left=0;bottom=0;right=0;points=[[0,0.5],[1,0.5]];portConstraint=eastwest;labelBackgroundColor=#6B280F;sketch=1;" vertex="1" parent="DXXwoO81avdfh-cVhMEc-162">
                    <mxGeometry y="202" width="410" height="54" as="geometry"/>
                </mxCell>
                <mxCell id="DXXwoO81avdfh-cVhMEc-185" value="" style="shape=partialRectangle;html=1;whiteSpace=wrap;connectable=0;overflow=hidden;fillColor=none;top=0;left=0;bottom=0;right=0;pointerEvents=1;labelBackgroundColor=#6B280F;sketch=1;" vertex="1" parent="DXXwoO81avdfh-cVhMEc-184">
                    <mxGeometry width="90" height="54" as="geometry">
                        <mxRectangle width="90" height="54" as="alternateBounds"/>
                    </mxGeometry>
                </mxCell>
                <mxCell id="DXXwoO81avdfh-cVhMEc-186" value="" style="shape=partialRectangle;html=1;whiteSpace=wrap;connectable=0;overflow=hidden;fillColor=none;top=0;left=0;bottom=0;right=0;pointerEvents=1;labelBackgroundColor=#6B280F;sketch=1;" vertex="1" parent="DXXwoO81avdfh-cVhMEc-184">
                    <mxGeometry x="90" width="320" height="54" as="geometry">
                        <mxRectangle width="320" height="54" as="alternateBounds"/>
                    </mxGeometry>
                </mxCell>
                <mxCell id="DXXwoO81avdfh-cVhMEc-191" value="" style="shape=partialRectangle;collapsible=0;dropTarget=0;pointerEvents=0;fillColor=none;top=0;left=0;bottom=0;right=0;points=[[0,0.5],[1,0.5]];portConstraint=eastwest;labelBackgroundColor=#6B280F;sketch=1;" vertex="1" parent="DXXwoO81avdfh-cVhMEc-162">
                    <mxGeometry y="256" width="410" height="51" as="geometry"/>
                </mxCell>
                <mxCell id="DXXwoO81avdfh-cVhMEc-192" value="" style="shape=partialRectangle;html=1;whiteSpace=wrap;connectable=0;overflow=hidden;fillColor=none;top=0;left=0;bottom=0;right=0;pointerEvents=1;labelBackgroundColor=#6B280F;sketch=1;" vertex="1" parent="DXXwoO81avdfh-cVhMEc-191">
                    <mxGeometry width="90" height="51" as="geometry">
                        <mxRectangle width="90" height="51" as="alternateBounds"/>
                    </mxGeometry>
                </mxCell>
                <mxCell id="DXXwoO81avdfh-cVhMEc-193" value="" style="shape=partialRectangle;html=1;whiteSpace=wrap;connectable=0;overflow=hidden;fillColor=none;top=0;left=0;bottom=0;right=0;pointerEvents=1;labelBackgroundColor=#6B280F;sketch=1;" vertex="1" parent="DXXwoO81avdfh-cVhMEc-191">
                    <mxGeometry x="90" width="320" height="51" as="geometry">
                        <mxRectangle width="320" height="51" as="alternateBounds"/>
                    </mxGeometry>
                </mxCell>
                <mxCell id="DXXwoO81avdfh-cVhMEc-198" value="" style="shape=partialRectangle;collapsible=0;dropTarget=0;pointerEvents=0;fillColor=none;top=0;left=0;bottom=0;right=0;points=[[0,0.5],[1,0.5]];portConstraint=eastwest;labelBackgroundColor=#6B280F;sketch=1;" vertex="1" parent="DXXwoO81avdfh-cVhMEc-162">
                    <mxGeometry y="307" width="410" height="51" as="geometry"/>
                </mxCell>
                <mxCell id="DXXwoO81avdfh-cVhMEc-199" value="" style="shape=partialRectangle;html=1;whiteSpace=wrap;connectable=0;overflow=hidden;fillColor=none;top=0;left=0;bottom=0;right=0;pointerEvents=1;labelBackgroundColor=#6B280F;sketch=1;" vertex="1" parent="DXXwoO81avdfh-cVhMEc-198">
                    <mxGeometry width="90" height="51" as="geometry">
                        <mxRectangle width="90" height="51" as="alternateBounds"/>
                    </mxGeometry>
                </mxCell>
                <mxCell id="DXXwoO81avdfh-cVhMEc-200" value="" style="shape=partialRectangle;html=1;whiteSpace=wrap;connectable=0;overflow=hidden;fillColor=none;top=0;left=0;bottom=0;right=0;pointerEvents=1;labelBackgroundColor=#6B280F;sketch=1;" vertex="1" parent="DXXwoO81avdfh-cVhMEc-198">
                    <mxGeometry x="90" width="320" height="51" as="geometry">
                        <mxRectangle width="320" height="51" as="alternateBounds"/>
                    </mxGeometry>
                </mxCell>
                <mxCell id="DXXwoO81avdfh-cVhMEc-205" value="" style="shape=partialRectangle;collapsible=0;dropTarget=0;pointerEvents=0;fillColor=none;top=0;left=0;bottom=0;right=0;points=[[0,0.5],[1,0.5]];portConstraint=eastwest;labelBackgroundColor=#6B280F;sketch=1;" vertex="1" parent="DXXwoO81avdfh-cVhMEc-162">
                    <mxGeometry y="358" width="410" height="51" as="geometry"/>
                </mxCell>
                <mxCell id="DXXwoO81avdfh-cVhMEc-206" value="" style="shape=partialRectangle;html=1;whiteSpace=wrap;connectable=0;overflow=hidden;fillColor=none;top=0;left=0;bottom=0;right=0;pointerEvents=1;labelBackgroundColor=#6B280F;sketch=1;" vertex="1" parent="DXXwoO81avdfh-cVhMEc-205">
                    <mxGeometry width="90" height="51" as="geometry">
                        <mxRectangle width="90" height="51" as="alternateBounds"/>
                    </mxGeometry>
                </mxCell>
                <mxCell id="DXXwoO81avdfh-cVhMEc-207" value="" style="shape=partialRectangle;html=1;whiteSpace=wrap;connectable=0;overflow=hidden;fillColor=none;top=0;left=0;bottom=0;right=0;pointerEvents=1;labelBackgroundColor=#6B280F;sketch=1;" vertex="1" parent="DXXwoO81avdfh-cVhMEc-205">
                    <mxGeometry x="90" width="320" height="51" as="geometry">
                        <mxRectangle width="320" height="51" as="alternateBounds"/>
                    </mxGeometry>
                </mxCell>
                <mxCell id="DXXwoO81avdfh-cVhMEc-212" value="" style="line;strokeWidth=2;html=1;perimeter=backbonePerimeter;points=[];outlineConnect=0;labelBackgroundColor=#6B280F;sketch=1;dashed=1;dashPattern=1 2;strokeColor=#33FF33;shadow=1;" vertex="1" parent="WIyWlLk6GJQsqaUBKTNV-1">
                    <mxGeometry x="1090" y="635" width="70" height="10" as="geometry"/>
                </mxCell>
                <mxCell id="DXXwoO81avdfh-cVhMEc-301" value="Department" style="swimlane;fontStyle=0;childLayout=stackLayout;horizontal=1;startSize=30;horizontalStack=0;resizeParent=1;resizeParentMax=0;resizeLast=0;collapsible=1;marginBottom=0;shadow=1;dashed=1;dashPattern=1 2;labelBackgroundColor=none;sketch=1;strokeColor=#33FF33;strokeWidth=2;" vertex="1" parent="WIyWlLk6GJQsqaUBKTNV-1">
                    <mxGeometry x="180" y="880" width="140" height="210" as="geometry">
                        <mxRectangle x="210" y="910" width="100" height="30" as="alternateBounds"/>
                    </mxGeometry>
                </mxCell>
                <mxCell id="DXXwoO81avdfh-cVhMEc-302" value="name: string" style="text;strokeColor=none;fillColor=none;align=left;verticalAlign=middle;spacingLeft=4;spacingRight=4;overflow=hidden;points=[[0,0.5],[1,0.5]];portConstraint=eastwest;rotatable=0;shadow=1;dashed=1;dashPattern=1 2;labelBackgroundColor=none;sketch=1;" vertex="1" parent="DXXwoO81avdfh-cVhMEc-301">
                    <mxGeometry y="30" width="140" height="30" as="geometry"/>
                </mxCell>
                <mxCell id="DXXwoO81avdfh-cVhMEc-303" value="href: string" style="text;strokeColor=none;fillColor=none;align=left;verticalAlign=middle;spacingLeft=4;spacingRight=4;overflow=hidden;points=[[0,0.5],[1,0.5]];portConstraint=eastwest;rotatable=0;shadow=1;dashed=1;dashPattern=1 2;labelBackgroundColor=none;sketch=1;" vertex="1" parent="DXXwoO81avdfh-cVhMEc-301">
                    <mxGeometry y="60" width="140" height="30" as="geometry"/>
                </mxCell>
                <mxCell id="DXXwoO81avdfh-cVhMEc-304" value="years: list&lt;Year&gt;" style="text;strokeColor=none;fillColor=none;align=left;verticalAlign=middle;spacingLeft=4;spacingRight=4;overflow=hidden;points=[[0,0.5],[1,0.5]];portConstraint=eastwest;rotatable=0;shadow=1;dashed=1;dashPattern=1 2;labelBackgroundColor=none;sketch=1;" vertex="1" parent="DXXwoO81avdfh-cVhMEc-301">
                    <mxGeometry y="90" width="140" height="30" as="geometry"/>
                </mxCell>
                <mxCell id="DXXwoO81avdfh-cVhMEc-305" value="get_name(): string" style="text;strokeColor=#A50040;fillColor=#d80073;align=left;verticalAlign=middle;spacingLeft=4;spacingRight=4;overflow=hidden;points=[[0,0.5],[1,0.5]];portConstraint=eastwest;rotatable=0;shadow=1;dashed=1;dashPattern=1 2;labelBackgroundColor=none;sketch=1;fontColor=#ffffff;" vertex="1" parent="DXXwoO81avdfh-cVhMEc-301">
                    <mxGeometry y="120" width="140" height="30" as="geometry"/>
                </mxCell>
                <mxCell id="DXXwoO81avdfh-cVhMEc-306" value="get_href():string" style="text;strokeColor=#A50040;fillColor=#d80073;align=left;verticalAlign=middle;spacingLeft=4;spacingRight=4;overflow=hidden;points=[[0,0.5],[1,0.5]];portConstraint=eastwest;rotatable=0;shadow=1;dashed=1;dashPattern=1 2;labelBackgroundColor=none;sketch=1;fontColor=#ffffff;" vertex="1" parent="DXXwoO81avdfh-cVhMEc-301">
                    <mxGeometry y="150" width="140" height="30" as="geometry"/>
                </mxCell>
                <mxCell id="DXXwoO81avdfh-cVhMEc-307" value="set years(list&lt;Year&gt;)" style="text;strokeColor=#A50040;fillColor=#d80073;align=left;verticalAlign=middle;spacingLeft=4;spacingRight=4;overflow=hidden;points=[[0,0.5],[1,0.5]];portConstraint=eastwest;rotatable=0;shadow=1;dashed=1;dashPattern=1 2;labelBackgroundColor=none;sketch=1;fontColor=#ffffff;" vertex="1" parent="DXXwoO81avdfh-cVhMEc-301">
                    <mxGeometry y="180" width="140" height="30" as="geometry"/>
                </mxCell>
                <mxCell id="DXXwoO81avdfh-cVhMEc-309" value="Years" style="swimlane;fontStyle=0;childLayout=stackLayout;horizontal=1;startSize=30;horizontalStack=0;resizeParent=1;resizeParentMax=0;resizeLast=0;collapsible=1;marginBottom=0;shadow=1;dashed=1;dashPattern=1 2;labelBackgroundColor=none;sketch=1;strokeColor=default;strokeWidth=2;" vertex="1" parent="WIyWlLk6GJQsqaUBKTNV-1">
                    <mxGeometry x="380" y="980" width="140" height="120" as="geometry"/>
                </mxCell>
                <mxCell id="DXXwoO81avdfh-cVhMEc-310" value="Item 1" style="text;strokeColor=none;fillColor=none;align=left;verticalAlign=middle;spacingLeft=4;spacingRight=4;overflow=hidden;points=[[0,0.5],[1,0.5]];portConstraint=eastwest;rotatable=0;shadow=1;dashed=1;dashPattern=1 2;labelBackgroundColor=none;sketch=1;" vertex="1" parent="DXXwoO81avdfh-cVhMEc-309">
                    <mxGeometry y="30" width="140" height="30" as="geometry"/>
                </mxCell>
                <mxCell id="DXXwoO81avdfh-cVhMEc-311" value="Item 2" style="text;strokeColor=none;fillColor=none;align=left;verticalAlign=middle;spacingLeft=4;spacingRight=4;overflow=hidden;points=[[0,0.5],[1,0.5]];portConstraint=eastwest;rotatable=0;shadow=1;dashed=1;dashPattern=1 2;labelBackgroundColor=none;sketch=1;" vertex="1" parent="DXXwoO81avdfh-cVhMEc-309">
                    <mxGeometry y="60" width="140" height="30" as="geometry"/>
                </mxCell>
                <mxCell id="DXXwoO81avdfh-cVhMEc-312" value="Item 3" style="text;strokeColor=none;fillColor=none;align=left;verticalAlign=middle;spacingLeft=4;spacingRight=4;overflow=hidden;points=[[0,0.5],[1,0.5]];portConstraint=eastwest;rotatable=0;shadow=1;dashed=1;dashPattern=1 2;labelBackgroundColor=none;sketch=1;" vertex="1" parent="DXXwoO81avdfh-cVhMEc-309">
                    <mxGeometry y="90" width="140" height="30" as="geometry"/>
                </mxCell>
            </root>
        </mxGraphModel>
    </diagram>
    <diagram id="1ckWXLYOyEnWJC2bG6zw" name="Page-2">
        <mxGraphModel dx="1151" dy="510" grid="1" gridSize="10" guides="1" tooltips="1" connect="1" arrows="1" fold="1" page="1" pageScale="1" pageWidth="850" pageHeight="1100" math="0" shadow="0">
            <root>
                <mxCell id="42kjqWPeTDmMqtcbD7E9-0"/>
                <mxCell id="42kjqWPeTDmMqtcbD7E9-1" parent="42kjqWPeTDmMqtcbD7E9-0"/>
            </root>
        </mxGraphModel>
    </diagram>
</mxfile>